# xmcd
# Copyright (C) 1995-1998 Ti Kan
#
# Track frame offsets:
#       150
#       20669
#       32236
#       40213
#       52310
#       73875
#       98519
#       112352
#       127506
#       154358
#       166451
#       176594
#       196424
#
# Disc length: 2929 seconds
#
# Revision: 0
# Processed by: cddbd v1.5.2PL0 Copyright (c) Steve Scherf et al.
# Submitted via: CD-Import v1.0
#
DISCID=bb0b6f0d
DTITLE=The Young Gods - Debut Album
DYEAR=87
DGENRE=
TTITLE0=Nous De La Lune
TTITLE1=Jusqu'au Buot
TTITLE2=À Ciel Ouvert
TTITLE3=Jimmy
TTITLE4=Fais La Mouette
TTITLE5=Percussionne
TTITLE6=Feu
TTITLE7=Did You Miss Me
TTITLE8=Si Tu Gardes
TTITLE9=The Irrtum Boys
TTITLE10=Envoyé
TTITLE11=Soul Idiot
TTITLE12=C.s.c.l.d.f.
EXTD=
EXTT0=
EXTT1=
EXTT2=
EXTT3=
EXTT4=
EXTT5=
EXTT6=
EXTT7=
EXTT8=
EXTT9=
EXTT10=
EXTT11=
EXTT12=
PLAYORDER=
